<mxfile host="65bd71144e">
    <diagram id="M6GpQH1W7YeBjHh8W6Jj" name="第 1 页">
        <mxGraphModel dx="467" dy="372" grid="1" gridSize="10" guides="1" tooltips="1" connect="1" arrows="1" fold="1" page="1" pageScale="1" pageWidth="827" pageHeight="1169" math="0" shadow="0">
            <root>
                <mxCell id="0"/>
                <mxCell id="1" parent="0"/>
                <mxCell id="2" value="1" style="rounded=0;whiteSpace=wrap;html=1;" vertex="1" parent="1">
                    <mxGeometry x="40" y="110" width="40" height="40" as="geometry"/>
                </mxCell>
                <mxCell id="3" value="1" style="rounded=0;whiteSpace=wrap;html=1;" vertex="1" parent="1">
                    <mxGeometry x="80" y="110" width="40" height="40" as="geometry"/>
                </mxCell>
                <mxCell id="4" value="1" style="rounded=0;whiteSpace=wrap;html=1;" vertex="1" parent="1">
                    <mxGeometry x="120" y="110" width="40" height="40" as="geometry"/>
                </mxCell>
                <mxCell id="5" value="1" style="rounded=0;whiteSpace=wrap;html=1;" vertex="1" parent="1">
                    <mxGeometry x="40" y="150" width="40" height="40" as="geometry"/>
                </mxCell>
                <mxCell id="6" value="1" style="rounded=0;whiteSpace=wrap;html=1;" vertex="1" parent="1">
                    <mxGeometry x="80" y="150" width="40" height="40" as="geometry"/>
                </mxCell>
                <mxCell id="7" value="1" style="rounded=0;whiteSpace=wrap;html=1;" vertex="1" parent="1">
                    <mxGeometry x="120" y="150" width="40" height="40" as="geometry"/>
                </mxCell>
                <mxCell id="8" value="1" style="rounded=0;whiteSpace=wrap;html=1;" vertex="1" parent="1">
                    <mxGeometry x="40" y="190" width="40" height="40" as="geometry"/>
                </mxCell>
                <mxCell id="9" value="1" style="rounded=0;whiteSpace=wrap;html=1;" vertex="1" parent="1">
                    <mxGeometry x="80" y="190" width="40" height="40" as="geometry"/>
                </mxCell>
                <mxCell id="10" value="1" style="rounded=0;whiteSpace=wrap;html=1;" vertex="1" parent="1">
                    <mxGeometry x="120" y="190" width="40" height="40" as="geometry"/>
                </mxCell>
                <mxCell id="11" value="10" style="rounded=0;whiteSpace=wrap;html=1;dashed=1;strokeColor=#FFB366;strokeWidth=2;" vertex="1" parent="1">
                    <mxGeometry x="320" y="100" width="40" height="40" as="geometry"/>
                </mxCell>
                <mxCell id="12" value="250" style="rounded=0;whiteSpace=wrap;html=1;dashed=1;strokeColor=#FFB366;strokeWidth=2;" vertex="1" parent="1">
                    <mxGeometry x="360" y="100" width="40" height="40" as="geometry"/>
                </mxCell>
                <mxCell id="13" value="55" style="rounded=0;whiteSpace=wrap;html=1;dashed=1;strokeColor=#FFB366;strokeWidth=2;" vertex="1" parent="1">
                    <mxGeometry x="400" y="100" width="40" height="40" as="geometry"/>
                </mxCell>
                <mxCell id="14" value="200" style="rounded=0;whiteSpace=wrap;html=1;dashed=1;strokeColor=#FFB366;strokeWidth=2;" vertex="1" parent="1">
                    <mxGeometry x="320" y="140" width="40" height="40" as="geometry"/>
                </mxCell>
                <mxCell id="15" value="98" style="rounded=0;whiteSpace=wrap;html=1;dashed=1;strokeColor=#FFB366;strokeWidth=2;" vertex="1" parent="1">
                    <mxGeometry x="360" y="140" width="40" height="40" as="geometry"/>
                </mxCell>
                <mxCell id="16" value="126" style="rounded=0;whiteSpace=wrap;html=1;dashed=1;strokeColor=#FFB366;strokeWidth=2;" vertex="1" parent="1">
                    <mxGeometry x="400" y="140" width="40" height="40" as="geometry"/>
                </mxCell>
                <mxCell id="17" value="100" style="rounded=0;whiteSpace=wrap;html=1;dashed=1;strokeColor=#FFB366;strokeWidth=2;" vertex="1" parent="1">
                    <mxGeometry x="320" y="180" width="40" height="40" as="geometry"/>
                </mxCell>
                <mxCell id="18" value="220" style="rounded=0;whiteSpace=wrap;html=1;dashed=1;strokeColor=#FFB366;strokeWidth=2;" vertex="1" parent="1">
                    <mxGeometry x="360" y="180" width="40" height="40" as="geometry"/>
                </mxCell>
                <mxCell id="19" value="1" style="rounded=0;whiteSpace=wrap;html=1;dashed=1;strokeColor=#FFB366;strokeWidth=2;" vertex="1" parent="1">
                    <mxGeometry x="400" y="180" width="40" height="40" as="geometry"/>
                </mxCell>
                <mxCell id="20" value="10" style="rounded=0;whiteSpace=wrap;html=1;dashed=1;strokeColor=#FFB366;strokeWidth=2;" vertex="1" parent="1">
                    <mxGeometry x="440" y="100" width="40" height="40" as="geometry"/>
                </mxCell>
                <mxCell id="21" value="250" style="rounded=0;whiteSpace=wrap;html=1;dashed=1;strokeColor=#FFB366;strokeWidth=2;" vertex="1" parent="1">
                    <mxGeometry x="480" y="100" width="40" height="40" as="geometry"/>
                </mxCell>
                <mxCell id="22" value="55" style="rounded=0;whiteSpace=wrap;html=1;dashed=1;strokeColor=#FFB366;strokeWidth=2;" vertex="1" parent="1">
                    <mxGeometry x="520" y="100" width="40" height="40" as="geometry"/>
                </mxCell>
                <mxCell id="23" value="200" style="rounded=0;whiteSpace=wrap;html=1;dashed=1;strokeColor=#FFB366;strokeWidth=2;" vertex="1" parent="1">
                    <mxGeometry x="440" y="140" width="40" height="40" as="geometry"/>
                </mxCell>
                <mxCell id="24" value="98" style="rounded=0;whiteSpace=wrap;html=1;dashed=1;strokeColor=#FFB366;strokeWidth=2;" vertex="1" parent="1">
                    <mxGeometry x="480" y="140" width="40" height="40" as="geometry"/>
                </mxCell>
                <mxCell id="25" value="126" style="rounded=0;whiteSpace=wrap;html=1;dashed=1;strokeColor=#FFB366;strokeWidth=2;" vertex="1" parent="1">
                    <mxGeometry x="520" y="140" width="40" height="40" as="geometry"/>
                </mxCell>
                <mxCell id="26" value="100" style="rounded=0;whiteSpace=wrap;html=1;dashed=1;strokeColor=#FFB366;strokeWidth=2;" vertex="1" parent="1">
                    <mxGeometry x="440" y="180" width="40" height="40" as="geometry"/>
                </mxCell>
                <mxCell id="27" value="220" style="rounded=0;whiteSpace=wrap;html=1;dashed=1;strokeColor=#FFB366;strokeWidth=2;" vertex="1" parent="1">
                    <mxGeometry x="480" y="180" width="40" height="40" as="geometry"/>
                </mxCell>
                <mxCell id="28" value="1" style="rounded=0;whiteSpace=wrap;html=1;dashed=1;strokeColor=#FFB366;strokeWidth=2;" vertex="1" parent="1">
                    <mxGeometry x="520" y="180" width="40" height="40" as="geometry"/>
                </mxCell>
                <mxCell id="29" value="10" style="rounded=0;whiteSpace=wrap;html=1;dashed=1;strokeColor=#FFB366;strokeWidth=2;" vertex="1" parent="1">
                    <mxGeometry x="320" y="220" width="40" height="40" as="geometry"/>
                </mxCell>
                <mxCell id="30" value="250" style="rounded=0;whiteSpace=wrap;html=1;dashed=1;strokeColor=#FFB366;strokeWidth=2;" vertex="1" parent="1">
                    <mxGeometry x="360" y="220" width="40" height="40" as="geometry"/>
                </mxCell>
                <mxCell id="31" value="55" style="rounded=0;whiteSpace=wrap;html=1;dashed=1;strokeColor=#FFB366;strokeWidth=2;" vertex="1" parent="1">
                    <mxGeometry x="400" y="220" width="40" height="40" as="geometry"/>
                </mxCell>
                <mxCell id="32" value="200" style="rounded=0;whiteSpace=wrap;html=1;dashed=1;strokeColor=#FFB366;strokeWidth=2;" vertex="1" parent="1">
                    <mxGeometry x="320" y="260" width="40" height="40" as="geometry"/>
                </mxCell>
                <mxCell id="33" value="98" style="rounded=0;whiteSpace=wrap;html=1;dashed=1;strokeColor=#FFB366;strokeWidth=2;" vertex="1" parent="1">
                    <mxGeometry x="360" y="260" width="40" height="40" as="geometry"/>
                </mxCell>
                <mxCell id="34" value="126" style="rounded=0;whiteSpace=wrap;html=1;dashed=1;strokeColor=#FFB366;strokeWidth=2;" vertex="1" parent="1">
                    <mxGeometry x="400" y="260" width="40" height="40" as="geometry"/>
                </mxCell>
                <mxCell id="35" value="100" style="rounded=0;whiteSpace=wrap;html=1;dashed=1;strokeColor=#FFB366;strokeWidth=2;" vertex="1" parent="1">
                    <mxGeometry x="320" y="300" width="40" height="40" as="geometry"/>
                </mxCell>
                <mxCell id="36" value="220" style="rounded=0;whiteSpace=wrap;html=1;dashed=1;strokeColor=#FFB366;strokeWidth=2;" vertex="1" parent="1">
                    <mxGeometry x="360" y="300" width="40" height="40" as="geometry"/>
                </mxCell>
                <mxCell id="37" value="1" style="rounded=0;whiteSpace=wrap;html=1;dashed=1;strokeColor=#FFB366;strokeWidth=2;" vertex="1" parent="1">
                    <mxGeometry x="400" y="300" width="40" height="40" as="geometry"/>
                </mxCell>
                <mxCell id="38" value="10" style="rounded=0;whiteSpace=wrap;html=1;dashed=1;strokeColor=#FFB366;strokeWidth=2;" vertex="1" parent="1">
                    <mxGeometry x="440" y="220" width="40" height="40" as="geometry"/>
                </mxCell>
                <mxCell id="39" value="250" style="rounded=0;whiteSpace=wrap;html=1;dashed=1;strokeColor=#FFB366;strokeWidth=2;" vertex="1" parent="1">
                    <mxGeometry x="480" y="220" width="40" height="40" as="geometry"/>
                </mxCell>
                <mxCell id="40" value="55" style="rounded=0;whiteSpace=wrap;html=1;dashed=1;strokeColor=#FFB366;strokeWidth=2;" vertex="1" parent="1">
                    <mxGeometry x="520" y="220" width="40" height="40" as="geometry"/>
                </mxCell>
                <mxCell id="41" value="200" style="rounded=0;whiteSpace=wrap;html=1;dashed=1;strokeColor=#FFB366;strokeWidth=2;" vertex="1" parent="1">
                    <mxGeometry x="440" y="260" width="40" height="40" as="geometry"/>
                </mxCell>
                <mxCell id="42" value="98" style="rounded=0;whiteSpace=wrap;html=1;dashed=1;strokeColor=#FFB366;strokeWidth=2;" vertex="1" parent="1">
                    <mxGeometry x="480" y="260" width="40" height="40" as="geometry"/>
                </mxCell>
                <mxCell id="43" value="126" style="rounded=0;whiteSpace=wrap;html=1;dashed=1;strokeColor=#FFB366;strokeWidth=2;" vertex="1" parent="1">
                    <mxGeometry x="520" y="260" width="40" height="40" as="geometry"/>
                </mxCell>
                <mxCell id="44" value="100" style="rounded=0;whiteSpace=wrap;html=1;dashed=1;strokeColor=#FFB366;strokeWidth=2;" vertex="1" parent="1">
                    <mxGeometry x="440" y="300" width="40" height="40" as="geometry"/>
                </mxCell>
                <mxCell id="45" value="220" style="rounded=0;whiteSpace=wrap;html=1;dashed=1;strokeColor=#FFB366;strokeWidth=2;" vertex="1" parent="1">
                    <mxGeometry x="480" y="300" width="40" height="40" as="geometry"/>
                </mxCell>
                <mxCell id="46" value="1" style="rounded=0;whiteSpace=wrap;html=1;dashed=1;strokeColor=#FFB366;strokeWidth=2;" vertex="1" parent="1">
                    <mxGeometry x="520" y="300" width="40" height="40" as="geometry"/>
                </mxCell>
                <mxCell id="47" value="卷积核(Kernel)" style="text;html=1;strokeColor=none;fillColor=none;align=center;verticalAlign=middle;whiteSpace=wrap;rounded=0;dashed=1;strokeWidth=2;" vertex="1" parent="1">
                    <mxGeometry x="70" y="240" width="60" height="30" as="geometry"/>
                </mxCell>
                <mxCell id="48" value="一张6x6的图像" style="text;html=1;strokeColor=none;fillColor=none;align=center;verticalAlign=middle;whiteSpace=wrap;rounded=0;dashed=1;strokeWidth=2;" vertex="1" parent="1">
                    <mxGeometry x="390" y="350" width="96" height="30" as="geometry"/>
                </mxCell>
                <mxCell id="76" value="" style="group;fillColor=none;strokeColor=#FF512E;strokeWidth=4;" vertex="1" connectable="0" parent="1">
                    <mxGeometry x="320" y="100" width="120" height="120" as="geometry"/>
                </mxCell>
                <mxCell id="67" value="" style="rounded=0;whiteSpace=wrap;html=1;strokeColor=#FF512E;strokeWidth=2;fillColor=none;" vertex="1" parent="76">
                    <mxGeometry width="40" height="40" as="geometry"/>
                </mxCell>
                <mxCell id="68" value="" style="rounded=0;whiteSpace=wrap;html=1;strokeColor=#FF512E;strokeWidth=2;fillColor=none;" vertex="1" parent="76">
                    <mxGeometry x="40" width="40" height="40" as="geometry"/>
                </mxCell>
                <mxCell id="69" value="" style="rounded=0;whiteSpace=wrap;html=1;strokeColor=#FF512E;strokeWidth=2;fillColor=none;" vertex="1" parent="76">
                    <mxGeometry x="80" width="40" height="40" as="geometry"/>
                </mxCell>
                <mxCell id="70" value="" style="rounded=0;whiteSpace=wrap;html=1;strokeColor=#FF512E;strokeWidth=2;fillColor=none;" vertex="1" parent="76">
                    <mxGeometry y="40" width="40" height="40" as="geometry"/>
                </mxCell>
                <mxCell id="71" value="" style="rounded=0;whiteSpace=wrap;html=1;strokeColor=#FF512E;strokeWidth=2;fillColor=#47E0FF;fillStyle=auto;opacity=50;" vertex="1" parent="76">
                    <mxGeometry x="40" y="40" width="40" height="40" as="geometry"/>
                </mxCell>
                <mxCell id="72" value="" style="rounded=0;whiteSpace=wrap;html=1;strokeColor=#FF512E;strokeWidth=2;fillColor=none;" vertex="1" parent="76">
                    <mxGeometry x="80" y="40" width="40" height="40" as="geometry"/>
                </mxCell>
                <mxCell id="73" value="" style="rounded=0;whiteSpace=wrap;html=1;strokeColor=#FF512E;strokeWidth=2;fillColor=none;" vertex="1" parent="76">
                    <mxGeometry y="80" width="40" height="40" as="geometry"/>
                </mxCell>
                <mxCell id="74" value="" style="rounded=0;whiteSpace=wrap;html=1;strokeColor=#FF512E;strokeWidth=2;fillColor=none;" vertex="1" parent="76">
                    <mxGeometry x="40" y="80" width="40" height="40" as="geometry"/>
                </mxCell>
                <mxCell id="75" value="" style="rounded=0;whiteSpace=wrap;html=1;strokeColor=#FF512E;strokeWidth=2;fillColor=none;" vertex="1" parent="76">
                    <mxGeometry x="80" y="80" width="40" height="40" as="geometry"/>
                </mxCell>
                <mxCell id="78" value="" style="shape=flexArrow;endArrow=classic;html=1;" edge="1" parent="1">
                    <mxGeometry width="50" height="50" relative="1" as="geometry">
                        <mxPoint x="190" y="169.5" as="sourcePoint"/>
                        <mxPoint x="310" y="170" as="targetPoint"/>
                    </mxGeometry>
                </mxCell>
            </root>
        </mxGraphModel>
    </diagram>
</mxfile>